# xmcd CD database file
#
# Track frame offsets:
#	150
#	19195
#	36835
#	49570
#	70797
#	88727
#	106735
#	120782
#	133795
#	148322
#	160767
#	178632
#	192860
#	222900
#
# Disc length: 4440 seconds
#
# Revision: 0
# Processed by: cddbd v1.5PL3 Copyright (c) Steve Scherf et al.
# Submitted via: CDex 1.51
#
DISCID=bd11560e
DTITLE=Tsuyoshi Kawakami and His moodmakers - moodmakers' mood
DYEAR=2003
DGENRE=Jazz+Funk
TTITLE0=The Sweetest Affair
TTITLE1=You'll Never Get To Heaven
TTITLE2=Summer Samba
TTITLE3=あの夏の日
TTITLE4=きっと言える
TTITLE5=Take10
TTITLE6=Something
TTITLE7=Pet Sounds
TTITLE8=Harlem Nocturne
TTITLE9=Double Burrel
TTITLE10=Last Tango In Paris
TTITLE11=Something
TTITLE12=You'll Never Dub To Heaven
TTITLE13=data
EXTD=YEAR: 2003
EXTT0=
EXTT1=
EXTT2=
EXTT3=
EXTT4=
EXTT5=
EXTT6=
EXTT7=
EXTT8=
EXTT9=
EXTT10=
EXTT11=
EXTT12=
EXTT13=
PLAYORDER=
